<svg xmlns="http://www.w3.org/2000/svg" viewBox="0 0 64 64">
<!-- SVG created with Arrow, by QuiverAI (https://quiver.ai) -->
  <style type="text/css">.cls-0 {fill:url(#SVGID_1_);}
.cls-1 {fill:#152B59;}
.cls-2 {fill:#2188D7;}
.cls-3 {fill:url(#SVGID_2_);}
.cls-4 {fill:url(#SVGID_3_);}
.cls-5 {fill:url(#SVGID_4_);}
.cls-6 {fill:url(#SVGID_5_);}
.cls-7 {fill-rule:evenodd;clip-rule:evenodd;fill:url(#SVGID_6_);}
.cls-8 {fill-rule:evenodd;clip-rule:evenodd;fill:url(#SVGID_7_);}</style>
  <linearGradient id="SVGID_1_" x1="14.39" x2="49.59" y1="54.47" y2="9.529" gradientUnits="userSpaceOnUse">
    <stop stop-color="#053DAE" offset="0"/>
    <stop stop-color="#2196F3" offset="1"/>
  </linearGradient>
  <path class="cls-0" d="m50.6 12c-0.6 0.3-0.9 0.6-1.6 0.3l-14.1-6.6c-0.3-1.1-1.1-2.1-2.9-2.1s-2.7 1-2.9 2.2l-14.2 6.6c-0.6 0.4-1-0.1-1.6-0.4-1.2-0.5-3 0.2-3.7 1.5-0.5 1.2 0 3 1.7 3.7 0.8 0.5 2 0.7 2.5 0l0.9-1.1c0.6-0.7 0.7-1.9 0.2-2.7l0.7-0.6 13.2-6.1h0.4c0 1.6 1.3 2.8 2.8 2.8s2.7-1.1 2.7-2.8h0.6l13.6 6.2 0.3 0.3c-0.5 0.8-0.5 2 0.2 3 0.4 0.6 1.1 1 1.6 1.3 1 0 3.4-0.6 3.6-2.6s-2.2-3.7-4-2.9z"/>
  <linearGradient id="SVGID_2_" x1="14.28" x2="49.72" y1="51.64" y2="12.36" gradientUnits="userSpaceOnUse">
    <stop stop-color="#053DAE" offset="0"/>
    <stop stop-color="#056ACE" offset="1"/>
  </linearGradient>
  <path class="cls-3" d="m50.6 51.9c-0.4-0.2-0.6-0.5-1.5-0.1l-13.9 5.6h-0.5c-0.3-1.5-1.2-2.5-2.7-2.6-1.3 0-2.5 0.8-2.7 2.6h-0.6l-13.5-6.2-0.3-0.4c0.5-1.3 0.4-2.4-0.9-3.2-0.9-0.7-2.6-1-3.6 0-1.2 1-1.3 2.8-0.2 4 0.5 0.5 1.8 1.2 2.9 0.7 0.6-0.2 1.4-0.9 2-0.5l14.1 6.4c0.2 0.8 1 2.1 2.5 2.2 2 0.1 2.7-0.9 3.1-2.2l14.1-6c0.9-0.5 1.2-0.6 1.8-0.1 1 0.6 3 0.3 3.6-0.9 0.6-1.1 0.5-2.7-0.7-3.7-1-0.9-2.6-0.6-3.6 0-1.1 0.7-1.4 2-0.8 3.4l-0.3 0.3-13.7 6"/>
  <linearGradient id="SVGID_3_" x1="9.509" x2="15.24" y1="14.69" y2="14.69" gradientUnits="userSpaceOnUse">
    <stop stop-color="#105DC4" offset="0"/>
    <stop stop-color="#0D2C56" offset="1"/>
  </linearGradient>
  <path class="cls-4" d="m14.4 13.1c-0.7-0.7-2-1.6-3.8-0.5-1.5 1.2-1.4 3.3-0.1 4.2 0.9 0.7 2.4 1.3 3.1 0.6l1.2-1.4c0.4-0.6 0.6-2.1-0.4-2.9z"/>
  <linearGradient id="SVGID_4_" x1="9.414" x2="15.2" y1="49.83" y2="49.83" gradientUnits="userSpaceOnUse">
    <stop stop-color="#10468A" offset="0"/>
    <stop stop-color="#062440" offset="1"/>
  </linearGradient>
  <path class="cls-5" d="m14.3 47.9c-0.9-0.9-2.8-1.5-3.9-0.3-1.2 1-1.2 2.8-0.2 4 0.8 0.7 2.2 1.3 3.4 0.5 1.7-0.7 2.2-3.1 0.7-4.2z"/>
  <linearGradient id="SVGID_5_" x1="48.84" x2="54.66" y1="14.74" y2="14.74" gradientUnits="userSpaceOnUse">
    <stop stop-color="#0D2544" offset=".002092"/>
    <stop stop-color="#186AD9" offset="1"/>
  </linearGradient>
  <path class="cls-6" d="m49.7 13.1c0.6-0.7 2.1-1.8 3.8-0.7 1.5 1 1.7 3.2 0.3 4.3-0.6 0.5-1.8 1-2.7 0.8-0.8-0.4-1.1-0.7-1.5-1.1-0.9-1-1-2.6 0.1-3.3z"/>
  <linearGradient id="SVGID_6_" x1="44.56" x2="61.91" y1="34.29" y2="34.29" gradientUnits="userSpaceOnUse">
    <stop stop-color="#007AF7" offset="0"/>
    <stop stop-color="#11ACFB" offset="1"/>
  </linearGradient>
  <path class="cls-7" d="m44.6 18.4 9.8 12.7c0.7 0.6 0.9 2 0.4 2.8l-10 12.3c0.1 0.4 0.3 0.5 0.6 0.5h5.2c0.9 0 1.8-0.5 2.7-1.7l7.7-9.7c1.3-2.1 1.2-3.7-0.3-5.5l-8.2-10.9c-0.5-0.6-1.3-1.1-1.9-1.1h-5.3c-0.4 0-0.7 0.2-0.7 0.6z"/>
  <linearGradient id="SVGID_7_" x1="2.168" x2="20.01" y1="33.13" y2="33.13" gradientUnits="userSpaceOnUse">
    <stop stop-color="#46EDFD" offset="0"/>
    <stop stop-color="#56EEFC" offset="0"/>
    <stop stop-color="#0BD0FF" offset=".45"/>
    <stop stop-color="#00EAFE" offset="1"/>
  </linearGradient>
  <path class="cls-8" d="m19.8 17.9h-6.1c-0.6-0.1-1.7 0.5-2.2 1.1l-8.4 10.6c-1.4 1.7-1.6 3.8 0 5.8l8.2 10c0.7 0.7 1.3 1.3 2.1 1.3h6c0.4 0 0.8 0 0.3-0.9l-9.6-12.1c-0.6-0.7-0.6-1.8 0.1-2.5l9.6-12c0.2-0.3 0.6-0.9 0-1.3z"/>
  <linearGradient id="SVGID_8_" x1="28.76" x2="34.9" y1="5.986" y2="5.986" gradientUnits="userSpaceOnUse">
    <stop stop-color="#57D4F4" offset="0"/>
    <stop stop-color="#2CCBFA" offset="1"/>
  </linearGradient>
  <path d="m29.1 5.9c0.3-1.4 1.2-2.4 2.9-2.4s2.7 0.9 3 2.4v0.8h-1c-0.2-1.3-1-2.3-2-2.3-1.2 0-2 0.8-2.2 2.3l-0.7 0.1v-0.9z" fill="url(#SVGID_8_)"/>
  <linearGradient id="SVGID_9_" x1="29.21" x2="34.72" y1="57.8" y2="57.8" gradientUnits="userSpaceOnUse">
    <stop stop-color="#1B75C4" offset="0"/>
    <stop stop-color="#0061AE" offset="1"/>
  </linearGradient>
  <path d="m29.2 57.3 0.8 0.1c0.2-1 1.1-1.8 2-1.8s1.7 0.6 2 1.8l0.7-0.1c0.1-0.1-0.3-2.4-2.7-2.5-2.3 0-2.8 2.4-2.8 2.5z" fill="url(#SVGID_9_)"/>
  <linearGradient id="SVGID_10_" x1="2.116" x2="19.8" y1="33" y2="33" gradientUnits="userSpaceOnUse">
    <stop stop-color="#46ECFE" offset="0"/>
    <stop stop-color="#1CDCFD" offset=".43"/>
    <stop stop-color="#47EAFC" offset="1"/>
  </linearGradient>
  <path d="m19.8 18.1c0.2 0.3 0.4 0.5-0.3 1.3l-9.4 12c-1 1.2-0.3 2 0 2.5l9.6 12.1" fill="none" stroke="url(#SVGID_10_)" stroke-miterlimit="10" stroke-width=".25"/>
  <linearGradient id="SVGID_11_" x1="44.7" x2="61.8" y1="33.05" y2="33.05" gradientUnits="userSpaceOnUse">
    <stop stop-color="#5CD8FF" offset=".004185"/>
    <stop stop-color="#3EBEFF" offset="1"/>
  </linearGradient>
  <path d="m44.8 18.4 9.9 12.9c0.6 0.7 0.6 2.1 0.1 2.6l-9.8 12.5" fill="none" stroke="url(#SVGID_11_)" stroke-linecap="square" stroke-linejoin="bevel" stroke-miterlimit="10" stroke-width=".25"/>
  <linearGradient id="SVGID_12_" x1="44.59" x2="61.82" y1="21.09" y2="21.09" gradientUnits="userSpaceOnUse">
    <stop stop-color="#5DD8FF" offset="0"/>
    <stop stop-color="#3BAFFF" offset="1"/>
  </linearGradient>
  <path d="m44.6 18.1h5.6c0.9 0 1.5 0.3 2.2 1.1l8.3 10.8" fill="none" stroke="url(#SVGID_12_)" stroke-miterlimit="10" stroke-width=".25"/>
  <radialGradient id="SVGID_13_" cx="32.2" cy="6.572" r="2.718" gradientUnits="userSpaceOnUse">
    <stop stop-color="#074CCD" offset="0"/>
    <stop stop-color="#052A54" offset=".9912"/>
  </radialGradient>
  <circle cx="32" cy="6.6" r="2.6" fill="url(#SVGID_13_)"/>
  <radialGradient id="SVGID_14_" cx="31.98" cy="57.79" r="2.367" gradientUnits="userSpaceOnUse">
    <stop stop-color="#0962BF" offset=".2033"/>
    <stop stop-color="#064787" offset=".9912"/>
  </radialGradient>
  <path d="m29.7 57.3c0.1 1.3 1.3 2.4 2.3 2.4 1.5 0 2.3-0.9 2.4-2.3l-0.4 0.1c-0.1 0.9-0.9 1.7-1.9 1.7s-1.6-0.7-1.9-1.8l-0.5-0.1z" fill="url(#SVGID_14_)"/>
  <radialGradient id="SVGID_15_" cx="12.27" cy="14.64" r="2.392" gradientUnits="userSpaceOnUse">
    <stop stop-color="#1355CF" offset=".2033"/>
    <stop stop-color="#0D2852" offset=".9931"/>
  </radialGradient>
  <ellipse cx="12.3" cy="14.6" rx="2.3" ry="2.2" fill="url(#SVGID_15_)"/>
  <radialGradient id="SVGID_16_" cx="51.72" cy="14.6" r="2.368" gradientUnits="userSpaceOnUse">
    <stop stop-color="#1153CE" offset=".2186"/>
    <stop stop-color="#092E59" offset=".9912"/>
  </radialGradient>
  <ellipse cx="51.7" cy="14.6" rx="2.3" ry="2.3" fill="url(#SVGID_16_)"/>
  <radialGradient id="SVGID_17_" cx="51.62" cy="49.67" r="2.575" gradientUnits="userSpaceOnUse">
    <stop stop-color="#104AA2" offset=".2186"/>
    <stop stop-color="#0A2748" offset=".9912"/>
  </radialGradient>
  <path d="m49 49.6c-0.1 1.5 1.7 2.8 3 2.7 1.9-0.1 2.8-1.5 2.6-3.1-0.2-0.6-0.9-2.2-2.8-2.1-0.4 0-2.9 0.3-2.9 2.3" fill="url(#SVGID_17_)"/>
  <radialGradient id="SVGID_18_" cx="12.2" cy="49.64" r="2.37" gradientUnits="userSpaceOnUse">
    <stop stop-color="#104AA2" offset=".2033"/>
    <stop stop-color="#072544" offset=".9912"/>
  </radialGradient>
  <ellipse cx="12.2" cy="49.7" rx="2.3" ry="2.3" fill="url(#SVGID_18_)"/>
  <circle class="cls-1" cx="32" cy="12.5" r=".4"/>
  <circle class="cls-1" cx="32" cy="15.4" r=".4"/>
  <circle class="cls-2" cx="32" cy="18.2" r=".4"/>
  <circle class="cls-1" cx="32" cy="21.1" r=".4"/>
  <circle class="cls-1" cx="32" cy="43" r=".4"/>
  <circle class="cls-1" cx="32" cy="46.1" r=".4"/>
  <circle class="cls-1" cx="32" cy="49.1" r=".4"/>
  <circle class="cls-1" cx="32" cy="51.9" r=".4"/>
  <radialGradient id="SVGID_19_" cx="32.03" cy="6.632" r="1.398" gradientUnits="userSpaceOnUse">
    <stop stop-color="#31FFFF" offset="0"/>
    <stop stop-color="#31E8FE" offset="1"/>
  </radialGradient>
  <path d="m31.9 5.3c-0.4 0.1-1.2 0.5-1.2 1.3 0 0.7 0.7 1.4 1.3 1.4 0.7 0 1.2-0.6 1.2-0.8 0.5-1.1-0.5-1.9-1.3-1.9z" fill="url(#SVGID_19_)"/>
  <radialGradient id="SVGID_20_" cx="32.03" cy="57.67" r="1.395" gradientUnits="userSpaceOnUse">
    <stop stop-color="#33FEFF" offset="0"/>
    <stop stop-color="#31E8FE" offset="1"/>
  </radialGradient>
  <path d="m31.9 56.4c-0.4 0.1-1.2 0.5-1.2 1.3 0 0.7 0.7 1.1 1.3 1.1s1.2-0.4 1.3-1.1c0.2-0.8-0.7-1.5-1.4-1.3z" fill="url(#SVGID_20_)"/>
  <radialGradient id="SVGID_21_" cx="12.3" cy="14.62" r="1.428" gradientUnits="userSpaceOnUse">
    <stop stop-color="#4BEAFF" offset="0"/>
    <stop stop-color="#31E8FE" offset="1"/>
  </radialGradient>
  <path d="m11.7 13.5c-0.6 0.4-1.1 1.2-0.6 1.8 0.6 0.9 1.3 0.7 1.9 0.4 0.5-0.3 1.1-1 0.3-1.9-0.4-0.5-1-0.6-1.6-0.3z" fill="url(#SVGID_21_)"/>
  <radialGradient id="SVGID_22_" cx="51.69" cy="14.68" r="1.365" gradientUnits="userSpaceOnUse">
    <stop stop-color="#43ECFF" offset="0"/>
    <stop stop-color="#31E8FE" offset="1"/>
  </radialGradient>
  <path d="m52.1 13.4c-1-0.2-1.9 0.6-1.8 1.5 0.2 0.8 1.1 1.3 1.9 0.8 1.3-0.8 0.7-2-0.1-2.3z" fill="url(#SVGID_22_)"/>
  <radialGradient id="SVGID_23_" cx="51.66" cy="49.67" r="1.519" fx="51.09" fy="49.27" gradientUnits="userSpaceOnUse">
    <stop stop-color="#0BBEF9" offset="0"/>
    <stop stop-color="#15DDFE" offset="1"/>
  </radialGradient>
  <path d="m51.2 48.5c-0.6 0.3-1.1 1.1-0.7 1.8 0.5 0.9 1.6 0.9 2.1 0.3 1-1.2 0-2.4-1.4-2.1z" fill="url(#SVGID_23_)"/>
  <radialGradient id="SVGID_24_" cx="12.27" cy="49.69" r="1.441" gradientUnits="userSpaceOnUse">
    <stop stop-color="#23CDF9" offset="0"/>
    <stop stop-color="#15DBFE" offset="1"/>
  </radialGradient>
  <path d="m11.5 48.7c-0.4 0.4-0.9 1.1-0.2 1.8 0.7 0.9 2.2 0.4 2.3-0.7 0.1-1.2-1.2-1.8-2.1-1.1z" fill="url(#SVGID_24_)"/>
  <linearGradient id="SVGID_25_" x1="20.37" x2="43.9" y1="25.49" y2="25.49" gradientUnits="userSpaceOnUse">
    <stop stop-color="#1DE4FE" offset="0"/>
    <stop stop-color="#17DCF8" offset="1"/>
  </linearGradient>
  <path d="m21.1 27.2h18.2l-1.4 1.6c-0.5 0.5-0.3 2.2 0.7 2 0.7 0 0.7-0.4 5-4 0.3-0.3 0.8-1 0-1.6l-4.3-4.3c-1.3-1.3-2.1 0.6-1.4 1.7l1.5 2h-16.4c-0.7 0-1 0.2-2.4 1.9-0.4 0.3 0 0.7 0.5 0.7z" fill="url(#SVGID_25_)"/>
  <linearGradient id="SVGID_26_" x1="19.52" x2="43.71" y1="37.81" y2="37.81" gradientUnits="userSpaceOnUse">
    <stop stop-color="#018AF8" offset="0"/>
    <stop stop-color="#14ABFB" offset="1"/>
  </linearGradient>
  <path d="m24 36.9h19.1c0.7 0 0.7 0.5 0.5 0.6-1.1 1.5-1.2 1.7-2.2 1.7h-17.3l1.4 1.5c0.5 0.5 0.4 2.1-0.8 2l-0.4-0.1-4.5-4c-0.7-0.7 0.2-1.4 0.6-1.7l3.8-3.3c1.2-0.7 2 0.6 1.3 1.7l-1.5 1.6z" fill="url(#SVGID_26_)"/>
  <linearGradient id="SVGID_27_" x1="20.5" x2="39.73" y1="26.02" y2="26.02" gradientUnits="userSpaceOnUse">
    <stop stop-color="#1FEDFE" offset=".003995"/>
    <stop stop-color="#13CDF8" offset="1"/>
  </linearGradient>
  <path d="m20.6 26.7 1.1-1.3c0.3-0.5 0.9-0.7 1.5-0.7h16.5" fill="none" stroke="url(#SVGID_27_)" stroke-miterlimit="10" stroke-width=".15"/>
</svg>